<?xml version="1.0" encoding="iso-8859-1"?>
<!-- Generator: Adobe Illustrator 19.0.0, SVG Export Plug-In . SVG Version: 6.00 Build 0)  -->
<svg version="1.1" id="Layer_1" xmlns="http://www.w3.org/2000/svg" xmlns:xlink="http://www.w3.org/1999/xlink" x="0px" y="0px"
	 viewBox="0 0 300 300" style="enable-background:new 0 0 300 300;" xml:space="preserve">
<g>
	<g>
		<g>
			<rect x="150.077" y="266.129" width="9.677" height="9.677"/>
			<path d="M271.045,117.731V82.258h4.839v-9.677h-4.839V53.226h-67.742V67.37c-12.218-1.819-21.373-10.297-27.75-18.982h3.556
				V19.355h4.839V9.677h-4.839V0h-58.065v9.677h-4.839v9.677h4.839v25.529c-9.677,2.623-33.145,10.452-56.647,33.953l6.842,6.842
				c31.819-31.819,59.226-32.453,59.502-32.453h6.111c4.123,12.174,19.979,51.373,55.326,60.813
				c-17.153,4.868-39.484,8.889-61.461,11.25v-4.321h4.839v-9.677h-4.839V91.935H43.625v19.355h-4.839v9.677h4.839v5.806v53.453
				c-8.003,2.656-26.903,11.081-42.735,34.829l8.052,5.366c13.877-20.811,30.416-28.427,37.253-30.827
				C57.44,208.626,114.328,300,169.432,300h4.839h77.419v-48.387h-4.839c-39.411,0-82.461-56.182-103.577-87.813
				c27.503-2.865,99.329-12.726,107.584-37.994h10.481c0.702,0.005,17.25,0.382,30.029,17.419l7.742-5.806
				C289.848,125.071,278.802,119.908,271.045,117.731z M212.979,62.903h9.679v4.839h9.677v-4.839h9.677v4.839h9.677v-4.839h9.677
				v9.677h-48.387V62.903z M135.562,29.032v14.516h-4.839V9.677h38.71V38.69c-2.69-4.989-4.311-9.082-4.868-10.577
				c-0.474-7.577-6.789-13.597-14.487-13.597C142.075,14.516,135.562,21.029,135.562,29.032z M150.078,24.193
				c2.671,0,4.839,2.173,4.839,4.839v0.784l0.252,0.745c0.608,1.829,14.723,42.774,48.134,46.491v4.998
				c-40.645-3.223-55.79-46.447-57.977-53.444C145.549,26.148,147.557,24.193,150.078,24.193z M148.95,57.571
				c10.398,15.571,27.658,32.366,54.353,34.195v14.439C172.65,103.345,155.889,73.781,148.95,57.571z M53.302,101.613h9.677v4.839
				h9.677v-4.839h9.677v4.839h9.677v-4.839h9.677v4.839h9.677v-4.839h9.677v9.677H53.302V101.613z M53.302,120.968h33.871v0h33.871
				v38.71h-14.516v-19.355c0-10.675-8.681-19.355-19.355-19.355s-19.355,8.681-19.355,19.355v19.355h-4.684
				c-5.09-7.805-8.516-13.558-9.832-15.813V120.968z M108.953,217.742c-3.121-3.135-6.174-6.377-9.14-9.677h39.842
				c2.773,3.174,5.676,6.406,8.695,9.677H108.953z M157.573,227.419c3.203,3.256,6.494,6.494,9.866,9.677h-35.923
				c-4.142-2.922-8.235-6.169-12.251-9.677H157.573z M91.476,198.387c-2.681-3.237-5.26-6.474-7.737-9.677h39.784
				c2.405,3.029,5.037,6.271,7.873,9.677H91.476z M76.481,179.032c-2.439-3.348-4.732-6.595-6.852-9.677h39.232
				c1.456,2.032,3.895,5.395,7.142,9.677H76.481z M96.851,159.677H77.497v-19.355c0-5.337,4.34-9.677,9.677-9.677
				s9.677,4.34,9.677,9.677V159.677z M164.594,290.047c-50.327-5.652-104.855-96.465-111.29-107.477v-20.153
				c19.108,29.884,65.347,94.302,111.29,98.642V290.047z M174.27,270.968v-19.355h-4.839c-6.966,0-14.046-1.776-21.096-4.839h29.84
				c10.902,9.353,22.345,19.355,33.813,24.194H174.27z M242.013,290.324h-67.742v-0.001v-9.677h66.353
				c0.465,0,0.924-0.31,1.389-0.266V290.324z M242.013,261.058v9.91h-0.9c-45.445-4.839-102.455-77.84-120.223-101.613h0.155h4.839
				h4.839v-6.944C149.826,192.295,196.065,256.718,242.013,261.058z M242.012,120.968c0.001,16.684-60.468,29.593-104.685,33.687
				c-3.319-5.235-5.594-9.058-6.605-10.79v-8.594c22.858-1.137,86.835-5.826,111.29-23.182V120.968z M223.573,110.811
				c5.443-4.055,8.762-8.705,8.762-14.037c0-2.666,2.168-4.839,4.839-4.839s4.839,2.173,4.839,4.839
				C242.013,102.111,234.837,106.814,223.573,110.811z M261.369,116.129h-9.679V96.774c0-8.003-6.513-14.516-14.516-14.516
				s-14.516,6.513-14.516,14.516c0,3.242-3.581,6.494-9.677,9.61V82.258h24.193h0.001h24.194V116.129z"/>
			<rect x="130.723" y="256.452" width="9.677" height="9.677"/>
		</g>
	</g>
</g>
<g>
</g>
<g>
</g>
<g>
</g>
<g>
</g>
<g>
</g>
<g>
</g>
<g>
</g>
<g>
</g>
<g>
</g>
<g>
</g>
<g>
</g>
<g>
</g>
<g>
</g>
<g>
</g>
<g>
</g>
</svg>
